<svg xmlns="http://www.w3.org/2000/svg" viewBox="0 0 989.93 195.17"><defs><style>.cls-1{fill:#fff;}.cls-2{fill:#f05;}</style></defs><g id="Layer_2" data-name="Layer 2"><g id="Layer_1-2" data-name="Layer 1"><path class="cls-1" d="M398.74,71.8c-5.71-9.87-17-16.58-29.95-16.58h-36.5V142.4h22.16V117.83h14.34c13,0,24.24-6.71,29.95-16.57a29.25,29.25,0,0,0,0-29.46M368.79,97.87H354.45V75.32h14.34c6.74,0,12.22,5.05,12.22,11.28s-5.48,11.27-12.22,11.27"/><path class="cls-1" d="M458.87,55.22a43.59,43.59,0,1,0,43.59,43.59,43.59,43.59,0,0,0-43.59-43.59m0,67.08a23.49,23.49,0,1,1,23.49-23.49,23.48,23.48,0,0,1-23.49,23.49"/><polygon class="cls-1" points="579.01 122.3 579.01 142.4 516.6 142.4 516.6 55.22 538.76 55.22 538.76 122.3 579.01 122.3"/><polygon class="cls-1" points="652.76 55.22 620.75 111.93 620.75 142.4 598.59 142.4 598.59 111.93 566.58 55.22 591.4 55.22 609.67 88.1 627.94 55.22 652.76 55.22"/><path class="cls-1" d="M728.85,111.46a23.43,23.43,0,0,1,.48,8.18c-1.55,14.51-17.8,23.37-36.17,22.73-14-.5-22.25-3.57-34.3-12.32l13.37-14.86c7.86,5.82,14.63,7.61,21.61,7.75,14,.28,18-8.34.47-13.39-18.89-5.19-31-12-33.78-23.39a23.61,23.61,0,0,1-.48-8.17c1.55-14.52,17.81-23.39,36.17-22.73,14,.49,22.25,3.56,34.31,12.32L717.15,82.43c-7.85-5.81-14.63-7.6-21.61-7.75-14-.28-18,8.34-.47,13.38,18.9,5.2,31,12,33.78,23.4"/><polygon class="cls-1" points="862.79 75.32 862.79 90.85 894.17 90.85 894.17 110.95 862.79 110.95 862.79 142.4 840.63 142.4 840.63 55.22 903.04 55.22 903.04 75.32 862.79 75.32"/><polygon class="cls-1" points="989.93 55.22 989.93 75.32 964.36 75.32 964.36 142.4 942.2 142.4 942.2 75.32 916.63 75.32 916.63 55.22 989.93 55.22"/><path class="cls-1" d="M783.13,55.22a43.59,43.59,0,1,0,43.59,43.59,43.59,43.59,0,0,0-43.59-43.59m0,67.08a23.49,23.49,0,1,1,23.49-23.49,23.48,23.48,0,0,1-23.49,23.49"/><path class="cls-2" d="M960.33,177.41h0a16.44,16.44,0,0,0-4-1.47c-1.39-.36-2.72-.61-3.54-.8h0a14.53,14.53,0,0,1-4.73-1.67,3.7,3.7,0,0,1-1.17-1.2,3.43,3.43,0,0,1-.39-1.69,4,4,0,0,1,2.58-3.5,7.38,7.38,0,0,1,3.2-.67h0a12.62,12.62,0,0,1,8,3.24l.07.06.4.32,3.33-4-.46-.38a21.44,21.44,0,0,0-4.27-2.74,17.69,17.69,0,0,0-4.53-1.45,14.87,14.87,0,0,0-2.47-.2,12.72,12.72,0,0,0-5.52,1.2,10.76,10.76,0,0,0-4,3.18l0,0h0l0,0a8.82,8.82,0,0,0-1.59,5,8.55,8.55,0,0,0,4.44,7.55h0a22.17,22.17,0,0,0,4.48,1.62c.78.19,1.52.37,2.08.49s.92.2,1,.22l.12,0a14.43,14.43,0,0,1,4.54,1.52,4.56,4.56,0,0,1,1.43,1.31,3.34,3.34,0,0,1,.53,1.83,4.19,4.19,0,0,1-1,2.76,5.53,5.53,0,0,1-1.84,1.33,8.32,8.32,0,0,1-3.5.73,11.28,11.28,0,0,1-2.34-.27h0a16.55,16.55,0,0,1-7.43-3.86h0l-.08-.08-.37-.31-3.44,3.91.44.39h0a21.72,21.72,0,0,0,9.82,5,16.57,16.57,0,0,0,3.37.38,12.24,12.24,0,0,0,5.72-1.2,11,11,0,0,0,4.23-3.38,9.27,9.27,0,0,0,1.64-5.4,8.63,8.63,0,0,0-4.75-7.78m-19.39,12.28-.32-.28.33.27Z"/><path class="cls-2" d="M769.8,175.52v13.27l-.13.15-.56.61a17,17,0,1,1,0-22.72l.35.39-4,3.6-.35-.4a11.61,11.61,0,1,0-.69,16.24v-5.79h-6.69v-5.35Z"/><path class="cls-2" d="M816.64,184.94,815,180.61l-6.88-17.89-.57-1.49h-4.45l-.58,1.5-6.87,17.88L794,184.94l-3.92,10.23h5.75l3.64-9.52h11.73l3.65,9.52h5.74Zm-15.13-4.66,3.8-9.9,3.8,9.9Z"/><polygon class="cls-2" points="873.94 161.23 873.94 195.17 868.58 195.17 868.58 170.22 857.42 183.2 846.28 170.22 846.28 195.17 840.92 195.17 840.92 161.23 845.62 161.23 857.42 174.97 869.24 161.23 873.94 161.23"/><polygon class="cls-2" points="903.47 166.59 903.47 175.51 915.03 175.51 915.03 180.87 903.47 180.87 903.47 189.8 917.6 189.8 917.6 195.16 898.1 195.16 898.1 161.23 917.6 161.23 917.6 166.59 903.47 166.59"/><polygon class="cls-2" points="989.93 161.23 989.93 171.1 987.9 171.1 987.9 164.56 985.49 166.86 983.07 164.55 983.07 171.1 981.03 171.1 981.03 161.23 982.51 161.23 985.49 164.06 988.45 161.23 989.93 161.23"/><polygon class="cls-2" points="978.9 161.23 978.9 163.25 976.38 163.25 976.38 171.1 974.36 171.1 974.36 163.25 971.84 163.25 971.84 161.23 978.9 161.23"/><path class="cls-2" d="M107.49,121C45.77,78.16,1,78.25,1,129.26s13.46,64.4,30.07,64.4c27.92,0,46.53-27.31,76.42-27.31s48.5,27.31,76.42,27.31c16.61,0,30.07-13.39,30.07-64.4S169.21,78.16,107.49,121Zm35.8,37.11c-15.38-5.28-25-7.61-35.8-7.61s-20.42,2.33-35.8,7.61c-27.29,9.37-39.23,19-39.23-20.64,0-35.56,35.23-27.46,75,2.51,39.8-30,75-38.07,75-2.51C182.52,177.09,170.58,167.5,143.29,158.13Z"/><path class="cls-2" d="M215,14.17c0,11.28-.68,23.52-8.23,25-40.6,5.68-65.09,13.06-99.26,57-34.17-43.91-58.66-51.29-99.26-57C.68,37.69,0,25.45,0,14.17S1.35-1.07,8.23.24c32.42,6.18,70.42,20.42,99.26,72.35C136.33,20.66,174.33,6.42,206.75.24,213.63-1.07,215,2.87,215,14.17Z"/><circle class="cls-2" cx="60.24" cy="66.29" r="21.17"/><circle class="cls-2" cx="154.74" cy="66.29" r="21.17"/></g></g></svg>