<?xml version="1.0" encoding="utf-8"?>
<!-- Generator: Adobe Illustrator 24.3.0, SVG Export Plug-In . SVG Version: 6.00 Build 0)  -->
<svg version="1.1" id="Layer_1" xmlns="http://www.w3.org/2000/svg" xmlns:xlink="http://www.w3.org/1999/xlink" x="0px" y="0px"
	 viewBox="0 0 2000 500" style="enable-background:new 0 0 2000 500;" xml:space="preserve">
<style type="text/css">
	.st0{fill:#FFFFFF;}
</style>
<g>
	<path class="st0" d="M247.71,125.66c-15.34-26.53-45.64-44.57-80.49-44.57H69.13v234.32h59.56v-66.04h38.53
		c34.86,0,65.15-18.04,80.49-44.55c6.83-11.8,10.71-25.27,10.71-39.58C258.42,150.93,254.54,137.45,247.71,125.66 M167.22,195.72
		h-38.53v-60.61h38.53c18.13,0,32.84,13.57,32.84,30.31C200.06,182.15,185.35,195.72,167.22,195.72"/>
	<path class="st0" d="M409.33,81.09c-64.71,0-117.15,52.46-117.15,117.17c0,64.71,52.44,117.15,117.15,117.15
		s117.17-52.44,117.17-117.15C526.49,133.55,474.03,81.09,409.33,81.09 M409.33,261.38c-34.86,0-63.12-28.25-63.12-63.12
		s28.25-63.14,63.12-63.14s63.14,28.27,63.14,63.14S444.19,261.38,409.33,261.38"/>
	<polygon class="st0" points="732.24,261.39 732.24,315.41 564.5,315.41 564.5,81.09 624.05,81.09 624.05,261.39 	"/>
	<polygon class="st0" points="941.54,81.09 855.51,233.51 855.51,315.41 795.95,315.41 795.95,233.51 709.92,81.09 776.62,81.09 
		825.73,169.47 874.84,81.09 	"/>
	<path class="st0" d="M1151.6,232.26c1.68,6.79,2.12,14.11,1.27,21.97c-4.15,39.01-47.84,62.83-97.2,61.09
		c-37.76-1.33-59.8-9.6-92.2-33.1l35.95-39.93c21.12,15.62,39.32,20.44,58.08,20.83c37.7,0.76,48.44-22.43,1.27-35.98
		c-50.79-13.96-83.28-32.23-90.8-62.88c-1.68-6.79-2.14-14.09-1.29-21.95c4.17-39.03,47.85-62.86,97.22-61.11
		c37.76,1.33,59.8,9.58,92.2,33.12l-35.95,39.92c-21.12-15.6-39.34-20.44-58.08-20.83c-37.7-0.76-48.44,22.41-1.27,35.96
		C1111.59,183.33,1144.07,201.59,1151.6,232.26"/>
	<polygon class="st0" points="1518.97,135.11 1518.97,176.85 1603.33,176.85 1603.33,230.87 1518.97,230.87 1518.97,315.41 
		1459.41,315.41 1459.41,81.09 1627.16,81.09 1627.16,135.11 	"/>
	<polygon class="st0" points="1860.7,81.09 1860.7,135.11 1791.98,135.11 1791.98,315.41 1732.42,315.41 1732.42,135.11 
		1663.69,135.11 1663.69,81.09 	"/>
	<path class="st0" d="M1601,388.17h-0.02c-2.05-1.18-4.63-1.99-7.12-2.62c-2.47-0.65-4.84-1.09-6.31-1.44h-0.02
		c-3.67-0.79-6.57-1.72-8.44-2.97c-0.94-0.63-1.61-1.33-2.09-2.14c-0.44-0.81-0.7-1.77-0.7-3.01c0-2.38,1.61-4.86,4.6-6.24
		c1.57-0.74,3.49-1.2,5.71-1.2h0.07c4.06,0,9.05,1.51,14.24,5.78l0.13,0.11l0.7,0.57l5.95-7.18l-0.83-0.68
		c-2.42-1.98-4.97-3.62-7.61-4.87c-2.66-1.26-5.37-2.12-8.09-2.58c-1.48-0.26-2.96-0.37-4.39-0.37c-3.47,0-6.83,0.7-9.84,2.14
		c-2.84,1.37-5.3,3.29-7.09,5.67l-0.04,0.04v0.02l-0.04,0.04c-1.79,2.62-2.84,5.65-2.84,8.86c-0.02,5.65,2.82,10.43,7.92,13.46h0.02
		c1.99,1.14,5.19,2.1,7.99,2.88c1.38,0.35,2.7,0.67,3.69,0.89c1.01,0.22,1.64,0.35,1.86,0.39l0.2,0.04c3.01,0.59,5.96,1.4,8.1,2.71
		c1.09,0.66,1.96,1.44,2.55,2.33c0.59,0.9,0.92,1.96,0.94,3.27c-0.02,2.18-0.81,3.73-1.81,4.91c-1.04,1.18-2.35,1.96-3.29,2.38
		c-1.81,0.83-3.95,1.29-6.24,1.29c-1.35,0-2.75-0.17-4.17-0.48l-0.02-0.02c-4.52-0.88-9.1-3.3-13.24-6.88h-0.02l-0.15-0.13
		l-0.66-0.55l-6.13,6.96l0.79,0.7l0.02,0.02c5.34,4.62,11.37,7.66,17.52,8.92c1.98,0.41,3.97,0.66,6,0.66
		c3.62,0,6.96-0.5,10.19-2.12c2.99-1.5,5.7-3.42,7.55-6.04c2-2.84,2.92-6.15,2.92-9.62C1609.49,396.12,1606.48,391.19,1601,388.17
		 M1566.43,410.04l-0.57-0.5c0.2,0.17,0.39,0.33,0.59,0.48L1566.43,410.04z"/>
	<path class="st0" d="M1257.98,384.79v23.65l-0.24,0.28l-1,1.09c-5.52,6.13-13.55,10.01-22.47,10.01c-8.34,0-15.91-3.4-21.38-8.86
		c-5.46-5.46-8.86-13.05-8.86-21.4c0-8.33,3.4-15.91,8.86-21.38c5.46-5.46,13.03-8.86,21.38-8.86c8.92,0,16.95,3.88,22.47,9.99
		l0.63,0.7l-7.11,6.41l-0.61-0.7c-3.8-4.21-9.27-6.83-15.38-6.83c-5.72,0-10.86,2.31-14.62,6.06c-3.75,3.77-6.06,8.9-6.06,14.62
		c0,5.74,2.31,10.87,6.06,14.64c3.77,3.75,8.9,6.06,14.62,6.06c5.48,0,10.45-2.12,14.14-5.59v-10.32h-11.93v-9.54H1257.98z"/>
	<path class="st0" d="M1342.6,401.59l-2.95-7.72l-12.26-31.9l-1.02-2.66h-7.94l-1.03,2.68l-12.24,31.88l-2.95,7.72l-7,18.22h10.25
		l6.5-16.96h20.9l6.52,16.96h10.23L1342.6,401.59z M1315.63,393.28l6.78-17.65l6.78,17.65H1315.63z"/>
	<polygon class="st0" points="1445.88,359.31 1445.88,419.81 1436.32,419.81 1436.32,375.35 1416.43,398.49 1396.57,375.35 
		1396.57,419.81 1387.01,419.81 1387.01,359.31 1395.39,359.31 1416.43,383.81 1437.5,359.31 	"/>
	<polygon class="st0" points="1497.37,368.87 1497.37,384.77 1517.99,384.77 1517.99,394.33 1497.37,394.33 1497.37,410.25 
		1522.57,410.25 1522.57,419.81 1487.81,419.81 1487.81,359.31 1522.57,359.31 1522.57,368.87 	"/>
	<rect x="69.13" y="384.77" class="st0" width="1083.76" height="9.58"/>
	<rect x="1663.69" y="384.77" class="st0" width="197.01" height="9.58"/>
	<polygon class="st0" points="1931.53,81.09 1931.53,103.04 1927.81,103.04 1927.81,87.17 1921.71,93.01 1915.57,87.15 
		1915.57,103.04 1911.84,103.04 1911.84,81.09 1914.59,81.09 1921.71,87.88 1928.79,81.09 	"/>
	<polygon class="st0" points="1909.42,81.09 1909.42,84.79 1903.56,84.79 1903.56,102.76 1899.86,102.76 1899.86,84.79 1894,84.79 
		1894,81.09 	"/>
	<path class="st0" d="M1301.18,81.09c-64.71,0-117.15,52.46-117.15,117.17c0,64.71,52.44,117.15,117.15,117.15
		c64.71,0,117.17-52.44,117.17-117.15C1418.34,133.55,1365.88,81.09,1301.18,81.09 M1301.18,261.38
		c-34.86,0-63.12-28.25-63.12-63.12s28.25-63.14,63.12-63.14c34.86,0,63.14,28.27,63.14,63.14S1336.04,261.38,1301.18,261.38"/>
</g>
</svg>
