<svg xmlns="http://www.w3.org/2000/svg" viewBox="0 0 990.7 201.38"><defs><style>.cls-1{fill:#fff;}.cls-2{fill:#f05;}</style></defs><g id="Layer_2" data-name="Layer 2"><g id="Layer_1-2" data-name="Layer 1"><path class="cls-1" d="M399.51,73c-5.71-9.87-17-16.58-29.95-16.58H333.07v87.18h22.16V119h14.33c13,0,24.24-6.71,29.95-16.58a29.17,29.17,0,0,0,0-29.45M369.56,99.08H355.23V76.53h14.33c6.75,0,12.22,5,12.22,11.28s-5.47,11.27-12.22,11.27"/><path class="cls-1" d="M459.64,56.43A43.59,43.59,0,1,0,503.23,100a43.59,43.59,0,0,0-43.59-43.59m0,67.08A23.49,23.49,0,1,1,483.13,100a23.49,23.49,0,0,1-23.49,23.49"/><polygon class="cls-1" points="579.78 123.51 579.78 143.61 517.37 143.61 517.37 56.43 539.53 56.43 539.53 123.51 579.78 123.51"/><polygon class="cls-1" points="653.53 56.43 621.53 113.14 621.53 143.61 599.37 143.61 599.37 113.14 567.36 56.43 592.17 56.43 610.45 89.31 628.72 56.43 653.53 56.43"/><path class="cls-1" d="M729.63,112.67a23.43,23.43,0,0,1,.47,8.18c-1.54,14.51-17.8,23.37-36.16,22.73-14.05-.5-22.25-3.58-34.31-12.32L673,116.4c7.85,5.81,14.63,7.61,21.61,7.75,14,.28,18-8.35.47-13.39-18.9-5.19-31-12-33.78-23.39a23.13,23.13,0,0,1-.48-8.17c1.55-14.52,17.8-23.39,36.17-22.74,14,.5,22.25,3.57,34.3,12.33L717.93,83.64c-7.86-5.81-14.64-7.61-21.61-7.75-14-.28-18,8.34-.47,13.38,18.89,5.2,31,12,33.78,23.4"/><polygon class="cls-1" points="863.56 76.53 863.56 92.06 894.95 92.06 894.95 112.16 863.56 112.16 863.56 143.61 841.4 143.61 841.4 56.43 903.81 56.43 903.81 76.53 863.56 76.53"/><polygon class="cls-1" points="990.7 56.43 990.7 76.53 965.14 76.53 965.14 143.61 942.98 143.61 942.98 76.53 917.41 76.53 917.41 56.43 990.7 56.43"/><path class="cls-1" d="M783.9,56.43A43.59,43.59,0,1,0,827.5,100a43.59,43.59,0,0,0-43.6-43.59m0,67.08A23.49,23.49,0,1,1,807.39,100a23.49,23.49,0,0,1-23.49,23.49"/><path class="cls-2" d="M961.1,178.62h0a16.11,16.11,0,0,0-4-1.47c-1.38-.36-2.71-.61-3.54-.81h0a14.23,14.23,0,0,1-4.73-1.66,3.72,3.72,0,0,1-1.17-1.21,3.36,3.36,0,0,1-.4-1.68,4,4,0,0,1,2.58-3.5,7.41,7.41,0,0,1,3.2-.68h0a12.7,12.7,0,0,1,8,3.24l.07.07.39.32,3.34-4-.47-.38a21.1,21.1,0,0,0-4.26-2.74,17.88,17.88,0,0,0-4.54-1.45,14.83,14.83,0,0,0-2.46-.2,12.69,12.69,0,0,0-5.52,1.2,10.61,10.61,0,0,0-4,3.18l0,0h0l0,0a8.75,8.75,0,0,0-1.6,5,8.56,8.56,0,0,0,4.45,7.55h0a21.39,21.39,0,0,0,4.48,1.61c.78.2,1.51.38,2.07.5s.92.2,1,.22l.11,0a14.41,14.41,0,0,1,4.55,1.52,4.44,4.44,0,0,1,1.43,1.31,3.29,3.29,0,0,1,.52,1.83,4.14,4.14,0,0,1-1,2.75,5.54,5.54,0,0,1-1.84,1.34,8.39,8.39,0,0,1-3.5.73A11.21,11.21,0,0,1,952,191h0a16.47,16.47,0,0,1-7.43-3.87h0l-.08-.07-.38-.31-3.44,3.9.45.4h0a21.75,21.75,0,0,0,9.83,5,16.55,16.55,0,0,0,3.36.37,12.33,12.33,0,0,0,5.72-1.19,11.16,11.16,0,0,0,4.24-3.38,9.26,9.26,0,0,0,1.63-5.4,8.62,8.62,0,0,0-4.75-7.78m-19.39,12.27-.32-.28c.12.1.22.19.33.27Z"/><path class="cls-2" d="M770.58,176.73V190l-.13.16-.56.61a17,17,0,1,1,0-22.72l.35.39-4,3.59-.34-.39a11.61,11.61,0,1,0-.69,16.24v-5.79h-6.69v-5.35Z"/><path class="cls-2" d="M817.42,186.15l-1.66-4.33-6.87-17.89-.57-1.49h-4.46l-.58,1.5-6.86,17.88-1.66,4.33-3.93,10.22h5.75l3.65-9.51H812l3.66,9.51h5.74Zm-15.13-4.66,3.8-9.9,3.8,9.9Z"/><polygon class="cls-2" points="874.72 162.44 874.72 196.37 869.36 196.37 869.36 171.43 858.2 184.41 847.06 171.43 847.06 196.37 841.69 196.37 841.69 162.44 846.39 162.44 858.2 176.18 870.02 162.44 874.72 162.44"/><polygon class="cls-2" points="904.24 167.8 904.24 176.72 915.81 176.72 915.81 182.08 904.24 182.08 904.24 191.01 918.38 191.01 918.38 196.37 898.88 196.37 898.88 162.43 918.38 162.43 918.38 167.8 904.24 167.8"/><polygon class="cls-2" points="990.7 162.44 990.7 172.31 988.68 172.31 988.68 165.77 986.26 168.07 983.85 165.75 983.85 172.31 981.81 172.31 981.81 162.44 983.29 162.44 986.26 165.27 989.22 162.44 990.7 162.44"/><polygon class="cls-2" points="979.67 162.44 979.67 164.46 977.16 164.46 977.16 172.31 975.13 172.31 975.13 164.46 972.62 164.46 972.62 162.44 979.67 162.44"/><path class="cls-2" d="M177.31,94c-20.75,0-46.62,13.36-69,31.79C85.85,107.34,60,93.94,39.23,94,10.72,94-3.84,110.07.88,151.69c4.86,42.86,26.68,49.69,41.45,49.69,25.72,0,41.74-28.87,65.94-28.87s40.22,28.87,65.94,28.87c14.77,0,36.59-6.83,41.45-49.69C220.38,110.07,205.82,94,177.31,94Zm-8.41,78.6c-17.73,0-32.28-16.21-60.63-16.21s-42.9,16.21-60.63,16.21c-16.19,0-18.27-20.48-18.27-30.57,0-16.11,11.78-20.08,24.52-20.08,15.62,0,38.15,9.5,54.38,23.69,16.23-14.19,38.76-23.69,54.38-23.69,12.74,0,24.52,4,24.52,20.08C187.17,152.1,185.09,172.58,168.9,172.58Z"/><circle class="cls-2" cx="61.02" cy="68.87" r="21.17"/><circle class="cls-2" cx="155.51" cy="68.87" r="21.17"/><path class="cls-2" d="M204.67,38.66c-39,3.63-67,20.87-96.4,56.73-29.44-35.86-57.43-53.1-96.4-56.73C-.75,37.49,1,18.35,1,10.51,1,1,6.2-.83,13.43.3c39.05,6.1,74.79,29,94.84,69.22C128.32,29.3,164.06,6.4,203.11.3c7.23-1.13,12.47.65,12.47,10.21C215.58,18.35,217.29,37.49,204.67,38.66Z"/></g></g></svg>