<svg xmlns="http://www.w3.org/2000/svg" viewBox="0 0 216.53 201.39"><defs><style>.cls-1{fill:#f05;}</style></defs><g id="Layer_2" data-name="Layer 2"><g id="Layer_1-2" data-name="Layer 1"><path class="cls-1" d="M177.31,94c-20.75,0-46.62,13.36-69,31.79C85.85,107.34,60,93.94,39.23,94,10.72,94-3.84,110.07.88,151.69c4.86,42.86,26.68,49.7,41.45,49.7,25.72,0,41.74-28.87,65.94-28.87s40.22,28.87,65.94,28.87c14.77,0,36.59-6.84,41.45-49.7C220.38,110.07,205.82,94,177.31,94Zm-8.41,78.6c-17.73,0-32.28-16.2-60.63-16.2s-42.9,16.2-60.63,16.2c-16.19,0-18.27-20.47-18.27-30.57,0-16.11,11.78-20.08,24.52-20.08,15.62,0,38.15,9.51,54.38,23.7,16.23-14.19,38.76-23.7,54.38-23.7,12.74,0,24.52,4,24.52,20.08C187.17,152.11,185.09,172.58,168.9,172.58Z"/><path class="cls-1" d="M204.66,38.66A123.85,123.85,0,0,0,163.59,49.3a21.17,21.17,0,1,1-29.25,19.57,5.43,5.43,0,0,1,0-.57,211.62,211.62,0,0,0-26.1,27.09A212.93,212.93,0,0,0,82.17,68.3a5.43,5.43,0,0,1,0,.57A21.18,21.18,0,1,1,52.93,49.3,123.85,123.85,0,0,0,11.86,38.66C-.76,37.49,1,18.35,1,10.51,1,1,6.19-.83,13.42.3c39.05,6.1,74.79,29,94.84,69.22C128.31,29.3,164.05,6.4,203.1.3c7.23-1.13,12.47.65,12.47,10.21C215.57,18.35,217.28,37.49,204.66,38.66Z"/></g></g></svg>