<svg xmlns="http://www.w3.org/2000/svg" viewBox="0 0 657.64 139.94"><defs><style>.cls-1{fill:#fff;}.cls-2{fill:#f05;}</style></defs><g id="Layer_2" data-name="Layer 2"><g id="Layer_1-2" data-name="Layer 1"><path class="cls-1" d="M66.44,16.58C60.73,6.71,49.46,0,36.49,0H0V87.18H22.16V62.61H36.49c13,0,24.24-6.71,29.95-16.58a29.17,29.17,0,0,0,0-29.45M36.49,42.65H22.16V20.1H36.49c6.75,0,12.22,5,12.22,11.28S43.24,42.65,36.49,42.65"/><path class="cls-1" d="M126.57,0a43.59,43.59,0,1,0,43.59,43.59A43.59,43.59,0,0,0,126.57,0m0,67.08a23.49,23.49,0,1,1,23.49-23.49,23.49,23.49,0,0,1-23.49,23.49"/><polygon class="cls-1" points="246.71 67.08 246.71 87.18 184.3 87.18 184.3 0 206.46 0 206.46 67.08 246.71 67.08"/><polygon class="cls-1" points="320.46 0 288.46 56.71 288.46 87.18 266.3 87.18 266.3 56.71 234.29 0 259.11 0 277.38 32.88 295.65 0 320.46 0"/><path class="cls-1" d="M396.56,56.24a23.43,23.43,0,0,1,.47,8.18c-1.54,14.51-17.8,23.37-36.16,22.73-14.05-.5-22.25-3.58-34.31-12.32L339.94,60c7.86,5.81,14.63,7.61,21.61,7.75,14,.28,18-8.35.47-13.39-18.9-5.19-31-12-33.78-23.39a23.13,23.13,0,0,1-.48-8.17C329.31,8.25,345.56-.62,363.93,0c14.05.5,22.25,3.57,34.3,12.33L384.86,27.21c-7.86-5.81-14.64-7.61-21.61-7.75-14-.28-18,8.34-.47,13.38,18.89,5.2,31,12,33.78,23.4"/><polygon class="cls-1" points="530.49 20.1 530.49 35.63 561.88 35.63 561.88 55.73 530.49 55.73 530.49 87.18 508.33 87.18 508.33 0 570.75 0 570.75 20.1 530.49 20.1"/><polygon class="cls-1" points="657.63 0 657.63 20.1 632.07 20.1 632.07 87.18 609.91 87.18 609.91 20.1 584.34 20.1 584.34 0 657.63 0"/><path class="cls-1" d="M450.84,0a43.59,43.59,0,1,0,43.59,43.59A43.59,43.59,0,0,0,450.84,0m0,67.08a23.49,23.49,0,1,1,23.49-23.49,23.49,23.49,0,0,1-23.49,23.49"/><path class="cls-2" d="M628,122.19h0a16.11,16.11,0,0,0-4-1.47c-1.38-.36-2.71-.61-3.54-.81h0a14.23,14.23,0,0,1-4.73-1.66,3.72,3.72,0,0,1-1.17-1.21,3.36,3.36,0,0,1-.4-1.68,4,4,0,0,1,2.58-3.5,7.41,7.41,0,0,1,3.2-.68h0a12.7,12.7,0,0,1,8,3.24l.07.07.39.32,3.34-4-.47-.38a21.1,21.1,0,0,0-4.26-2.74,17.75,17.75,0,0,0-4.54-1.45,14.83,14.83,0,0,0-2.46-.2,12.69,12.69,0,0,0-5.52,1.2,10.61,10.61,0,0,0-4,3.18l0,0h0l0,0a8.75,8.75,0,0,0-1.6,5,8.56,8.56,0,0,0,4.45,7.55h0a21.59,21.59,0,0,0,4.48,1.61c.78.2,1.51.38,2.07.5s.92.2,1.05.22l.11,0a14.41,14.41,0,0,1,4.55,1.52,4.44,4.44,0,0,1,1.43,1.31,3.38,3.38,0,0,1,.53,1.83,4.19,4.19,0,0,1-1,2.75,5.44,5.44,0,0,1-1.84,1.34,8.39,8.39,0,0,1-3.5.73,11.21,11.21,0,0,1-2.34-.27h0a16.47,16.47,0,0,1-7.43-3.87h0l-.08-.07-.38-.31-3.44,3.9.45.4h0a21.75,21.75,0,0,0,9.83,5,16.56,16.56,0,0,0,3.37.37,12.29,12.29,0,0,0,5.71-1.19,11.16,11.16,0,0,0,4.24-3.38,9.27,9.27,0,0,0,1.64-5.4,8.64,8.64,0,0,0-4.76-7.78m-19.39,12.27-.32-.27.33.26Z"/><path class="cls-2" d="M437.51,120.3v13.26l-.13.16-.56.61a17,17,0,1,1,0-22.72l.35.39-4,3.59-.34-.39a11.61,11.61,0,1,0-.69,16.24v-5.79h-6.69V120.3Z"/><path class="cls-2" d="M484.35,129.72l-1.66-4.33-6.87-17.89-.57-1.49h-4.46l-.58,1.5-6.86,17.88-1.66,4.33-3.93,10.22h5.75l3.65-9.51h11.72l3.66,9.51h5.74Zm-15.13-4.66,3.8-9.9,3.8,9.9Z"/><polygon class="cls-2" points="541.65 106 541.65 139.94 536.28 139.94 536.28 115 525.13 127.98 513.99 115 513.99 139.94 508.62 139.94 508.62 106 513.32 106 525.13 119.75 536.95 106 541.65 106"/><polygon class="cls-2" points="571.17 111.37 571.17 120.29 582.74 120.29 582.74 125.65 571.17 125.65 571.17 134.58 585.31 134.58 585.31 139.94 565.81 139.94 565.81 106 585.31 106 585.31 111.37 571.17 111.37"/><polygon class="cls-2" points="657.63 106.01 657.63 116.43 655.86 116.43 655.86 107.73 652.77 110.77 652.49 111.08 649.11 107.72 649.11 116.43 647.35 116.43 647.35 106.01 649.91 106.01 652.5 108.57 655.04 106.01 657.63 106.01"/><polygon class="cls-2" points="645.4 106.01 645.4 107.78 642.04 107.78 642.04 116.43 640.27 116.43 640.27 107.78 636.93 107.78 636.93 106.01 645.4 106.01"/></g></g></svg>